<svg xmlns="http://www.w3.org/2000/svg" viewBox="0 0 9 9" shape-rendering="crispEdges">
  <rect width="9" height="9" fill="#0f0f1b"/>
  <rect x="1" y="1" width="1" height="1" fill="#3a2418"/>
  <rect x="2" y="1" width="1" height="1" fill="#3a2418"/>
  <rect x="6" y="1" width="1" height="1" fill="#3a2418"/>
  <rect x="7" y="1" width="1" height="1" fill="#3a2418"/>
  <rect x="0" y="2" width="1" height="1" fill="#3a2418"/>
  <rect x="1" y="2" width="1" height="1" fill="#f0f0eb"/>
  <rect x="2" y="2" width="1" height="1" fill="#f0f0eb"/>
  <rect x="3" y="2" width="1" height="1" fill="#3a2418"/>
  <rect x="5" y="2" width="1" height="1" fill="#3a2418"/>
  <rect x="6" y="2" width="1" height="1" fill="#f0f0eb"/>
  <rect x="7" y="2" width="1" height="1" fill="#f0f0eb"/>
  <rect x="8" y="2" width="1" height="1" fill="#3a2418"/>
  <rect x="0" y="3" width="1" height="1" fill="#3a2418"/>
  <rect x="1" y="3" width="1" height="1" fill="#f0f0eb"/>
  <rect x="2" y="3" width="1" height="1" fill="#f0f0eb"/>
  <rect x="3" y="3" width="1" height="1" fill="#f0f0eb"/>
  <rect x="4" y="3" width="1" height="1" fill="#f0f0eb"/>
  <rect x="5" y="3" width="1" height="1" fill="#f0f0eb"/>
  <rect x="6" y="3" width="1" height="1" fill="#f0f0eb"/>
  <rect x="7" y="3" width="1" height="1" fill="#f0f0eb"/>
  <rect x="8" y="3" width="1" height="1" fill="#3a2418"/>
  <rect x="0" y="4" width="1" height="1" fill="#3a2418"/>
  <rect x="1" y="4" width="1" height="1" fill="#f0f0eb"/>
  <rect x="2" y="4" width="1" height="1" fill="#f0f0eb"/>
  <rect x="3" y="4" width="1" height="1" fill="#f0f0eb"/>
  <rect x="4" y="4" width="1" height="1" fill="#f0f0eb"/>
  <rect x="5" y="4" width="1" height="1" fill="#f0f0eb"/>
  <rect x="6" y="4" width="1" height="1" fill="#c8c6be"/>
  <rect x="7" y="4" width="1" height="1" fill="#c8c6be"/>
  <rect x="8" y="4" width="1" height="1" fill="#3a2418"/>
  <rect x="0" y="5" width="1" height="1" fill="#3a2418"/>
  <rect x="1" y="5" width="1" height="1" fill="#f0f0eb"/>
  <rect x="2" y="5" width="1" height="1" fill="#f0f0eb"/>
  <rect x="3" y="5" width="1" height="1" fill="#f0f0eb"/>
  <rect x="4" y="5" width="1" height="1" fill="#f0f0eb"/>
  <rect x="5" y="5" width="1" height="1" fill="#f0f0eb"/>
  <rect x="6" y="5" width="1" height="1" fill="#c8c6be"/>
  <rect x="7" y="5" width="1" height="1" fill="#c8c6be"/>
  <rect x="8" y="5" width="1" height="1" fill="#3a2418"/>
  <rect x="0" y="6" width="1" height="1" fill="#3a2418"/>
  <rect x="1" y="6" width="1" height="1" fill="#f0f0eb"/>
  <rect x="2" y="6" width="1" height="1" fill="#c8c6be"/>
  <rect x="3" y="6" width="1" height="1" fill="#3a2418"/>
  <rect x="5" y="6" width="1" height="1" fill="#3a2418"/>
  <rect x="6" y="6" width="1" height="1" fill="#c8c6be"/>
  <rect x="7" y="6" width="1" height="1" fill="#c8c6be"/>
  <rect x="8" y="6" width="1" height="1" fill="#3a2418"/>
  <rect x="1" y="7" width="1" height="1" fill="#3a2418"/>
  <rect x="2" y="7" width="1" height="1" fill="#3a2418"/>
  <rect x="6" y="7" width="1" height="1" fill="#3a2418"/>
  <rect x="7" y="7" width="1" height="1" fill="#3a2418"/>
</svg>
